<?xml version="1.0" encoding="utf-8"?>
<!-- Generator: Adobe Illustrator 25.0.0, SVG Export Plug-In . SVG Version: 6.00 Build 0)  -->
<svg version="1.1" id="Layer_1" xmlns="http://www.w3.org/2000/svg" xmlns:xlink="http://www.w3.org/1999/xlink" x="0px" y="0px"
	 viewBox="0 0 1000 1000" style="enable-background:new 0 0 1000 1000;" xml:space="preserve">
<style type="text/css">
	.st0{fill-rule:evenodd;clip-rule:evenodd;fill:#FFFFFF;}
	.st1{fill-rule:evenodd;clip-rule:evenodd;}
	.st2{fill-rule:evenodd;clip-rule:evenodd;fill:#DEB02E;}
	.st3{fill-rule:evenodd;clip-rule:evenodd;fill:#1A704D;}
</style>
<g>
	<path class="st0" d="M41.3,41.3h917.3v917.3H41.3V41.3z"/>
	<path class="st1" d="M815.2,206.9l-1.1-3.8l-1.4-3.7c-13-35.4-76.3-96.2-109.9-109.4c-32.7-12.8-69.7-10.7-101.5,5.7l1.4-0.7
		L377.3,207.3l0.4-0.2c-39.5,19.5-71,54.1-99.2,109l-0.2,0.4c-21.6,42.4-36.4,85.8-45.2,132.6c-4.9,25.8-7.4,49.5-7.4,71.4
		c0,24.3,3,46.4,9.1,66.7c1.2,4,2.5,7.8,3.8,11.5c-12.5,12.2-23.5,27.1-33,45.3l-0.6,1.1l-0.5,1.1c-10.2,20.4-17.4,42.2-21.5,64.6
		c-2.7,13.5-4.1,26.4-4.1,38.8c0,16.2,2.5,31.4,7.3,45.9c11.2,35.3,73.6,97.9,106.3,112.3c33.2,14.6,71.3,13.6,104.5-2.7
		l225.8-112.5l-0.4,0.2c39.3-19.4,71.9-55.2,99.5-109.3c20.9-40.6,36.1-84.9,45.1-131.7l0.1-0.4c4.9-26,7.4-49.9,7.4-71.9
		c0-24.4-3.1-46.6-9.1-66.8c-1.1-3.9-2.4-7.8-3.8-11.7c12.5-12.2,23.5-27,33-45.1l0.7-1.4c10.5-20.6,17.9-42.6,21.9-65.3
		c2.8-13.9,4.3-27.2,4.3-39.8C821.1,234.5,819.2,220.4,815.2,206.9L815.2,206.9z"/>
	<path class="st2" d="M752.6,180.1l-0.9-2.9l-1.1-2.9c-10.4-28.2-30.7-49.5-57.3-59.9c-25.8-10.1-55-8.4-80.1,4.6l1.1-0.6L389,230.7
		l0.3-0.1c-34.2,16.9-62.1,47.9-87.6,97.5l-0.2,0.3c-20.4,40.2-34.4,81.3-42.8,125.7c-4.6,24.2-6.9,46.3-6.9,66.6
		c0,21.8,2.7,41.5,8,59.4c2.7,9.1,6.2,17.9,10.5,26.3c-16.4,11.5-30.1,28-41.6,50l-0.4,0.8l-0.4,0.9c-8.9,17.8-15.2,36.8-18.9,56.3
		c-2.6,12.5-4,24.3-4,35.4c0,13.7,2.1,26.4,6.1,38.4c9,28.4,28.1,50.3,54.2,61.8c26.2,11.5,56.2,10.7,82.4-2.3l225.7-112.5l-0.3,0.1
		c34.6-17.1,62.5-48.1,87.8-97.7c19.8-38.4,34.2-80.4,42.7-124.8l0.1-0.3c4.6-24.4,6.9-46.7,6.9-67c0-21.9-2.7-41.7-8.1-59.5
		c-2.6-9.1-6.1-18-10.4-26.4c16.8-11.9,30.7-28.6,42.1-50.9c9.3-18.3,15.9-37.9,19.5-58.2c2.5-12.4,3.8-24.1,3.8-35.1
		C757.4,202.8,755.8,191.1,752.6,180.1L752.6,180.1z"/>
	<path class="st3" d="M641.1,627.2l-0.1,0.2c0,0,0,0.1-0.1,0.1L641.1,627.2z M233.2,783.9c-0.3-0.8-0.5-1.7-0.8-2.6
		c-0.2-0.7-0.5-1.4-0.7-2.1L233.2,783.9L233.2,783.9z M731.2,248.9l0.5-2.8c-0.1,0.6-0.3,1.1-0.4,1.7
		C731.3,248.2,731.2,248.5,731.2,248.9z M680.9,391.7c0.1,0.3,0.1,0.6,0.2,0.8c0.1,0.2,0.1,0.4,0.2,0.6L680.9,391.7z"/>
	<path class="st3" d="M731.2,186.3l-0.7-2.2l-0.8-2.2c-8.1-22.1-23.9-38.7-44.4-46.7c-19.8-7.7-42.3-6.4-61.8,3.6l0.8-0.4
		L398.9,250.7c-29.5,14.6-54.2,42.4-77.4,87.6c-19.6,38.5-32.9,77.7-40.9,119.9c-4.4,22.8-6.5,43.6-6.5,62.4
		c0,19.6,2.4,37.1,7.1,52.9c5.2,17.6,12.7,30.5,21,40.4l-8,4l1.3-0.7c-25.3,11.9-39,33.9-47,49.3l-0.3,0.6l-0.3,0.6
		c-8,16.1-13.7,33.2-17,50.8c-2.3,11-3.5,21.3-3.5,30.9c0,11.4,1.7,21.9,5,31.7c7.1,22.2,21.8,39.2,42,48.1
		c20.1,8.8,43.3,8.2,63.5-1.8l225.6-112.5c29.8-14.7,54.5-42.7,77.6-87.8c19.1-37.1,32.4-75.9,40.6-118.8
		c4.4-23.2,6.6-44.2,6.6-63.1c0-19.6-2.4-37.1-7.1-52.8c-5-17.6-12.6-30.8-20.9-40.7l8-4l0.4-0.2c24.1-12.4,37.3-33.6,45.2-48.4v0
		c8.3-15.7,14.1-33,17.5-51.4c2.5-11.6,3.8-22.4,3.8-32.5C735.1,205,733.8,195.3,731.2,186.3L731.2,186.3z"/>
	<path class="st3" d="M281.2,573.8l-0.1-0.3c0-0.1,0-0.1-0.1-0.2L281.2,573.8z M230.5,720.3c0.1-0.5,0.2-1,0.3-1.6
		c0.1-0.3,0.1-0.7,0.2-1L230.5,720.3z"/>
	<path class="st1" d="M765.4,706.9h-6.1v-24.4h-8.9v-5.3h23.9v5.3h-8.9V706.9z M806.4,706.9h-5.7v-24.8h-0.1l-5.5,24.8h-6l-5.4-24.8
		h-0.1v24.8H778v-29.7h9l5.3,23.4h0.1l5.2-23.4h8.8V706.9z M671.4,285.3c-5.2,10.2-10.5,16.7-16,19.6l-149.8,74.5
		c-5.1,2.5-10.4,9.2-15.3,19.1c-5.5,10.1-9.4,21.4-11.7,34.1c-2.4,11.9-2.9,21.5-0.5,27.8c2,6.4,5.4,8.8,10.9,6l112.2-55.9
		c15.7-7.9,26.6-1.8,32.4,19c6.1,19.9,5.9,47.5-1,84c-7.1,36.6-18.5,69.9-34.3,100.6c-15.7,30.9-31.4,50-47.3,57.8L325.6,784.3
		c-5.1,2.5-8.6,0.2-10.5-6.2c-2.4-6.4-2-15.9,0.6-28c2.1-11.8,5.9-23.2,11.3-33.9c5.3-10.2,10.5-16.8,15.7-19.2l150.1-74.8
		c5.2-2.4,10.4-9.2,15.9-19.3c5.5-10.1,9.3-21.4,11.4-33.3c2.1-11.8,2.1-21.2,0.3-28.4c-1.9-6.5-5.4-8.9-10.5-6.3l-112.6,56
		c-15.8,7.9-26.6,1.8-32.6-18.8c-6-19.9-5.7-47.8,1.1-83.4c6.6-35.3,18.2-69.4,34.6-101.4c15.9-30.9,31.6-50,47.1-57.7l225.4-112.3
		c5.1-2.6,8.6-0.2,10.9,6c1.9,6.5,1.6,16.1-1.2,28.9C680.4,263.8,676.7,274.9,671.4,285.3L671.4,285.3z"/>
	<path class="st0" d="M643.5,257.5c-5.2,10.2-10.5,16.7-16,19.6l-149.8,74.5c-5.1,2.5-10.4,9.2-15.3,19.1
		c-5.5,10.1-9.4,21.4-11.7,34.1c-2.5,11.9-2.9,21.5-0.5,27.8c2,6.4,5.4,8.8,10.9,6l112.2-55.9c15.7-7.9,26.6-1.8,32.4,19
		c6.1,19.9,5.9,47.5-1,84c-7.1,36.6-18.5,69.9-34.3,100.6c-15.7,30.9-31.4,50-47.3,57.8L297.7,756.4c-5.1,2.5-8.6,0.2-10.5-6.2
		c-2.4-6.4-2-15.9,0.6-28c2.1-11.8,5.9-23.2,11.3-33.9c5.3-10.2,10.5-16.8,15.7-19.2l150.1-74.8c5.2-2.4,10.4-9.2,15.9-19.3
		c5.5-10.1,9.3-21.4,11.4-33.3c2.1-11.8,2.1-21.2,0.3-28.4c-1.9-6.5-5.4-8.9-10.5-6.3l-112.6,56c-15.8,7.9-26.6,1.8-32.6-18.8
		c-6-19.9-5.7-47.7,1.1-83.3c6.6-35.3,18.2-69.4,34.6-101.4c15.9-30.9,31.6-50,47.1-57.7l225.4-112.3c5.1-2.6,8.6-0.2,10.9,6
		c1.9,6.5,1.6,16.1-1.2,28.9C652.5,235.9,648.8,247.1,643.5,257.5L643.5,257.5z"/>
</g>
</svg>
